<?xml version="1.0" standalone="no"?>
<!DOCTYPE svg PUBLIC "-//W3C//DTD SVG 20010904//EN"
 "http://www.w3.org/TR/2001/REC-SVG-20010904/DTD/svg10.dtd">
<svg version="1.0" xmlns="http://www.w3.org/2000/svg"
 width="800.000000pt" height="800.000000pt" viewBox="0 0 800.000000 800.000000"
 preserveAspectRatio="xMidYMid meet">
<metadata>
Created by potrace 1.13, written by Peter Selinger 2001-2015
</metadata>
<g transform="translate(0.000000,800.000000) scale(0.080000,-0.080000)"
fill="#000000" stroke="none">
<path d="M6622 5260 c-60 -13 -139 -58 -173 -100 -29 -34 -40 -65 -54 -142 -6
-36 -4 -38 20 -38 21 0 25 5 25 28 0 15 11 51 25 79 59 117 228 159 335 83 27
-19 28 -20 51 -1 21 17 22 21 9 36 -37 45 -156 72 -238 55z"/>
<path d="M3716 5234 c-44 -77 -54 -88 -84 -96 -28 -8 -31 -11 -25 -38 3 -17 1
-30 -4 -30 -6 0 -9 -14 -7 -30 2 -20 -5 -44 -20 -68 -14 -20 -26 -48 -28 -62
-2 -14 -9 -28 -17 -31 -16 -6 -26 -49 -11 -49 6 0 10 9 10 20 0 11 6 21 13 21
32 3 37 5 37 12 0 4 9 16 20 27 11 11 20 27 20 35 0 15 29 26 65 24 11 -1 45
2 76 6 l55 7 60 -108 c76 -139 87 -153 108 -135 9 7 16 19 16 25 0 12 -47 109
-86 176 -15 25 -48 86 -73 135 -26 50 -61 112 -78 139 l-31 49 -16 -29z"/>
<path d="M4126 5252 c-5 -9 -9 -67 -5 -92 1 -8 1 -32 1 -54 -2 -29 -6 -37 -16
-33 -10 4 -13 1 -9 -9 3 -7 13 -14 22 -15 9 0 11 -3 4 -5 -7 -3 -10 -11 -7
-19 5 -12 -16 -30 -41 -35 -17 -3 -16 -6 10 -20 27 -14 36 -46 10 -36 -8 3
-15 1 -15 -4 0 -6 9 -10 19 -10 17 0 19 -8 20 -86 0 -47 2 -88 4 -90 2 -3 34
-7 70 -11 56 -5 68 -3 73 11 3 9 10 16 16 16 5 0 6 -4 3 -10 -3 -5 0 -10 8
-10 8 0 17 7 21 15 3 8 16 15 28 15 13 0 37 12 53 26 17 14 35 29 42 32 6 4
23 29 37 56 29 55 36 151 14 203 -6 15 -11 31 -10 35 1 4 -12 20 -28 37 -17
16 -30 27 -30 25 0 -3 -15 7 -34 21 -19 15 -59 33 -88 41 -58 15 -164 19 -172
6z"/>
<path d="M4558 5246 c-20 -14 -24 -36 -8 -36 6 0 10 -5 10 -12 0 -24 65 -108
85 -109 17 -1 17 -2 3 -6 -21 -5 -21 -4 -9 -36 8 -20 15 -24 38 -20 26 4 27 3
10 -11 -21 -16 -15 -56 7 -56 8 0 19 -7 26 -15 11 -13 10 -14 -2 -10 -12 5
-16 -2 -16 -34 -1 -31 3 -41 15 -41 12 0 13 -3 4 -14 -7 -8 -11 -37 -10 -66 2
-45 5 -51 23 -48 18 3 21 11 23 51 2 28 -2 47 -9 47 -7 0 -6 5 2 15 7 8 10 21
7 30 -10 23 17 96 57 159 20 32 35 60 33 63 -3 2 -21 1 -40 -2 -28 -6 -38 -14
-53 -46 -20 -45 -35 -46 -49 -2 -5 16 -18 37 -27 47 -10 10 -18 22 -18 27 0 6
-4 7 -10 4 -6 -3 -7 1 -4 9 6 15 -51 126 -64 126 -4 0 -15 -7 -24 -14z"/>
<path d="M4827 5184 c-21 -42 -36 -78 -34 -80 1 -2 16 0 33 4 21 6 38 23 62
62 17 30 32 57 32 60 0 6 -44 30 -53 30 -2 0 -20 -34 -40 -76z"/>
<path d="M5044 5241 c-88 -40 -112 -128 -54 -194 41 -47 143 -92 182 -81 16 5
30 13 30 19 0 5 -32 23 -72 39 -53 21 -77 37 -91 60 -26 43 -24 63 10 97 52
51 150 37 177 -26 11 -27 20 -35 39 -35 56 0 9 97 -62 126 -45 19 -110 17
-159 -5z"/>
<path d="M5523 5236 c-66 -31 -139 -98 -146 -134 -3 -15 -10 -47 -17 -71 -7
-28 -7 -48 -1 -54 15 -15 1 -38 -20 -32 -13 4 -19 1 -19 -9 0 -18 36 -40 50
-31 6 4 17 -10 26 -30 8 -20 21 -38 29 -42 8 -3 15 -14 15 -25 0 -10 4 -17 9
-13 5 3 16 -2 25 -10 38 -38 194 -66 246 -45 17 7 30 16 30 21 0 5 10 9 23 9
12 0 33 7 45 16 13 9 29 13 37 10 8 -3 15 -1 15 4 0 6 -5 10 -11 10 -6 0 2 15
18 33 18 20 34 56 43 92 8 33 18 63 22 66 5 3 2 19 -6 35 -8 16 -19 40 -24 54
-20 51 -70 106 -123 134 -44 24 -68 30 -134 33 -69 4 -87 1 -132 -21z"/>
<path d="M6284 5237 c7 -31 9 -327 2 -334 -3 -4 -7 -4 -9 -2 -75 106 -145 202
-197 269 l-65 85 -3 -204 c-2 -157 1 -206 10 -213 10 -6 10 -8 1 -8 -9 0 -13
-17 -13 -50 0 -47 2 -50 25 -50 23 0 25 4 25 44 0 26 -5 46 -12 49 -10 4 -10
6 0 6 9 1 12 34 12 130 0 107 3 130 16 135 8 3 12 2 9 -4 -3 -5 20 -44 52 -87
31 -43 73 -99 92 -125 19 -26 38 -45 42 -42 4 2 10 -5 14 -16 8 -25 16 -25 38
0 15 18 17 46 17 230 l0 210 -31 0 c-27 0 -30 -3 -25 -23z"/>
<path d="M3128 5193 c-17 -4 -18 -24 -18 -234 l0 -229 181 0 180 0 -3 28 -3
27 -120 0 c-66 0 -132 1 -147 3 l-28 2 0 108 c0 131 -11 302 -19 301 -3 -1
-14 -3 -23 -6z"/>
<path d="M6827 4974 c-15 -15 -6 -24 24 -24 20 0 29 4 27 13 -5 14 -40 21 -51
11z"/>
<path d="M5203 4963 c-26 -5 -30 -18 -8 -27 8 -3 23 -21 32 -41 16 -34 16 -35
-7 -60 -13 -14 -20 -28 -16 -32 4 -4 12 0 17 10 6 9 14 15 20 12 5 -4 9 -1 9
5 0 6 5 8 10 5 6 -4 8 -11 5 -16 -4 -5 -2 -9 4 -9 29 0 25 108 -5 141 -17 19
-21 20 -61 12z"/>
<path d="M6440 4950 c0 -5 -7 -10 -15 -10 -8 0 -15 -4 -15 -9 0 -23 14 -41 30
-41 10 0 21 -7 24 -16 9 -23 7 -31 -3 -15 -5 7 -14 12 -21 9 -20 -6 52 -74
113 -105 91 -48 246 -32 310 32 14 14 17 31 15 76 -3 57 -4 59 -30 59 -27 0
-28 -2 -28 -55 0 -51 -2 -56 -27 -67 -39 -15 -124 -22 -179 -13 -58 8 -128 69
-146 126 -10 35 -28 54 -28 29z"/>
<path d="M4960 4863 c0 -28 46 -93 74 -107 46 -21 53 -20 58 9 4 20 1 26 -18
31 -15 4 -28 18 -36 40 -10 29 -17 34 -45 34 -18 0 -33 -3 -33 -7z"/>
<path d="M5109 4777 c-6 -16 -3 -45 4 -40 5 3 13 -1 18 -8 6 -10 9 -7 9 12 0
15 -7 29 -15 33 -8 3 -15 4 -16 3z"/>
</g>
</svg>
